<svg xmlns="http://www.w3.org/2000/svg" width="18" height="14" fill="none"><path fill="currentColor" d="M5.94 13.705a9.57 9.57 0 0 0 9.63-9.63v-.443a7.05 7.05 0 0 0 1.68-1.747c-.618.27-1.273.45-1.943.532a3.42 3.42 0 0 0 1.5-1.875 6.668 6.668 0 0 1-2.144.825A3.39 3.39 0 0 0 8.886 4.45 9.593 9.593 0 0 1 1.912.917a3.382 3.382 0 0 0 1.05 4.5 3.353 3.353 0 0 1-1.5-.42v.038a3.398 3.398 0 0 0 2.663 3.337 3.398 3.398 0 0 1-1.5.06A3.382 3.382 0 0 0 5.76 10.75a6.788 6.788 0 0 1-4.207 1.5 7.333 7.333 0 0 1-.803-.068 9.577 9.577 0 0 0 5.19 1.5"/></svg>