<svg xmlns="http://www.w3.org/2000/svg" width="20" height="20" fill="none"><path fill="currentColor" d="M18.933 11.41A9.045 9.045 0 0 0 8.59 1.067a5.467 5.467 0 0 0-7.501 7.5C1.006 9.042.96 9.52.955 10a9.045 9.045 0 0 0 10.455 8.933 5.468 5.468 0 0 0 7.5-7.5l.023-.023Zm-4.636 2.7a3.75 3.75 0 0 1-1.68 1.298 6.751 6.751 0 0 1-2.61.465A6.309 6.309 0 0 1 7 15.25a3.9 3.9 0 0 1-1.365-1.222 2.693 2.693 0 0 1-.525-1.5 1.02 1.02 0 0 1 .323-.75 1.17 1.17 0 0 1 .817-.278c.249-.005.491.08.683.24.209.196.37.437.472.705.13.313.296.61.495.885.198.254.456.455.75.585.4.172.833.251 1.268.233a3 3 0 0 0 1.755-.465 1.35 1.35 0 0 0 .667-1.148 1.155 1.155 0 0 0-.352-.877 2.316 2.316 0 0 0-.938-.525c-.39-.128-.908-.255-1.56-.398-.75-.174-1.48-.42-2.182-.735A3.585 3.585 0 0 1 5.89 8.95a2.625 2.625 0 0 1-.525-1.657 2.737 2.737 0 0 1 .555-1.68c.418-.52.974-.91 1.605-1.125A7.132 7.132 0 0 1 10 4.128a6.472 6.472 0 0 1 1.943.262c.494.147.959.38 1.372.69.325.244.596.553.795.908.162.286.25.608.255.937a1.049 1.049 0 0 1-.322.75 1.073 1.073 0 0 1-.803.345.937.937 0 0 1-.668-.21 2.522 2.522 0 0 1-.487-.652 2.841 2.841 0 0 0-.788-.983 2.348 2.348 0 0 0-1.462-.345 2.73 2.73 0 0 0-1.5.375 1.08 1.08 0 0 0-.57.9.863.863 0 0 0 .188.563c.15.173.333.313.54.412.22.114.45.204.69.27.24.068.63.165 1.177.293.69.15 1.305.315 1.867.495.504.153.983.375 1.425.66.386.244.704.582.923.982a3 3 0 0 1 .3 1.47 3.18 3.18 0 0 1-.578 1.86Z"/></svg>